<svg xmlns="http://www.w3.org/2000/svg" viewBox="0 0 32 32" width="32" height="32">
  <defs>
    <linearGradient id="grad32" x1="0%" y1="0%" x2="100%" y2="100%">
      <stop offset="0%" style="stop-color:#4A90E2;stop-opacity:1" />
      <stop offset="100%" style="stop-color:#357ABD;stop-opacity:1" />
    </linearGradient>
  </defs>
  
  <!-- Airplane body -->
  <path d="M16 2 L18 8 L18 20 L16 22 L14 20 L14 8 Z" fill="url(#grad32)"/>
  
  <!-- Wings -->
  <path d="M6 12 L14 14 L14 16 L6 14 Z" fill="url(#grad32)"/>
  <path d="M26 12 L18 14 L18 16 L26 14 Z" fill="url(#grad32)"/>
  
  <!-- Tail -->
  <path d="M12 20 L16 22 L20 20 L18 25 L14 25 Z" fill="url(#grad32)"/>
  
  <!-- Small tail fins -->
  <path d="M10 18 L14 19 L14 21 L10 20 Z" fill="#357ABD"/>
  <path d="M22 18 L18 19 L18 21 L22 20 Z" fill="#357ABD"/>
  
  <!-- Nose -->
  <circle cx="16" cy="6" r="2" fill="#2E5A87"/>
  
  <!-- Cockpit windows -->
  <ellipse cx="16" cy="8" rx="1.5" ry="1" fill="#87CEEB"/>
  <ellipse cx="16" cy="10" rx="1" ry="0.8" fill="#87CEEB"/>
</svg>
