<svg xmlns="http://www.w3.org/2000/svg" viewBox="0 0 16 16" width="16" height="16">
  <defs>
    <linearGradient id="grad16" x1="0%" y1="0%" x2="100%" y2="100%">
      <stop offset="0%" style="stop-color:#4A90E2;stop-opacity:1" />
      <stop offset="100%" style="stop-color:#357ABD;stop-opacity:1" />
    </linearGradient>
  </defs>
  
  <!-- Airplane body -->
  <path d="M8 1 L9 4 L9 10 L8 11 L7 10 L7 4 Z" fill="url(#grad16)"/>
  
  <!-- Wings -->
  <path d="M3 6 L7 7 L7 8 L3 7 Z" fill="url(#grad16)"/>
  <path d="M13 6 L9 7 L9 8 L13 7 Z" fill="url(#grad16)"/>
  
  <!-- Tail -->
  <path d="M6 10 L8 11 L10 10 L9 12 L7 12 Z" fill="url(#grad16)"/>
  
  <!-- Small tail fins -->
  <path d="M5 9 L7 9.5 L7 10.5 L5 10 Z" fill="#357ABD"/>
  <path d="M11 9 L9 9.5 L9 10.5 L11 10 Z" fill="#357ABD"/>
  
  <!-- Nose -->
  <circle cx="8" cy="3" r="1" fill="#2E5A87"/>
</svg>
